<svg xmlns="http://www.w3.org/2000/svg" width="1600" height="1000" viewBox="0 0 1600 1000">
  <defs><radialGradient id="nbg"><stop stop-color="#172522"/><stop offset=".55" stop-color="#07100f"/><stop offset="1" stop-color="#030505"/></radialGradient><linearGradient id="lime"><stop stop-color="#e9ff83"/><stop offset=".45" stop-color="#8cf05c"/><stop offset="1" stop-color="#1e9b67"/></linearGradient><filter id="ng" x="-50%" y="-50%" width="200%" height="200%"><feGaussianBlur stdDeviation="7" result="b"/><feMerge><feMergeNode in="b"/><feMergeNode in="SourceGraphic"/></feMerge></filter><pattern id="dots" width="24" height="24" patternUnits="userSpaceOnUse"><circle cx="2" cy="2" r="1" fill="#a8ff7d" opacity=".08"/></pattern><style>.micro{font:11px Arial;letter-spacing:3px;fill:#71958a}.label{font:700 12px Arial;letter-spacing:2px;fill:#8bb0a1}.value{font:700 19px Arial;fill:#f2fff9}.node{fill:#07120f;stroke:#7ae861;stroke-opacity:.5}.hot{filter:url(#ng)}</style></defs>
  <rect width="1600" height="1000" fill="url(#nbg)"/><rect width="1600" height="1000" fill="url(#dots)"/><path d="M80 80h1440v840H80z" fill="#06100d" fill-opacity=".82" stroke="#79e966" stroke-opacity=".34" stroke-width="2"/>
  <path d="M80 80h250M80 80v190M1520 80h-250M1520 80v190M80 920h250M1520 920h-250" fill="none" stroke="url(#lime)" stroke-width="5" filter="url(#ng)"/>
  <text x="125" y="135" font-family="Arial" font-size="31" font-weight="800" fill="#f2fff8" letter-spacing="4">MUTATION NEXUS</text><text x="125" y="163" class="micro">ACTIVE BIOLOGICAL MODIFIERS // TWO SLOTS AVAILABLE</text>
  <g transform="translate(1250 105)"><text class="micro">SLOT LOAD</text><text x="210" y="5" text-anchor="end" font-family="Arial" font-size="25" font-weight="800" fill="#dfff83">0 / 2</text></g>
  <g stroke="#66dc72" stroke-opacity=".22" fill="none"><path d="M800 250L490 410M800 250l310 160M490 410L325 635M490 410l5 225M1110 410l165 225M1110 410l-5 225M495 635l305 125M1105 635L800 760" stroke-width="3"/><path d="M800 250v510" stroke-dasharray="5 16"/></g>
  <g transform="translate(720 195)"><circle cx="80" cy="80" r="74" class="node" stroke-width="3"/><circle cx="80" cy="80" r="51" fill="none" stroke="#dfff83" stroke-dasharray="4 8"/><path d="M80 38l36 21v42l-36 21-36-21V59z" fill="#17301f" stroke="#a6ff6d"/><text x="80" y="171" text-anchor="middle" class="label">HOST GENOME</text></g>
  <g transform="translate(385 335)"><path d="M0 55L55 0h110l55 55-55 55H55z" class="node"/><path d="M70 32h80v46H70z" fill="none" stroke="#97f36d"/><text x="110" y="137" text-anchor="middle" class="value">CARAPACE</text><text x="110" y="157" text-anchor="middle" class="micro">AVAILABLE</text></g>
  <g transform="translate(995 335)"><path d="M0 55L55 0h110l55 55-55 55H55z" class="node"/><circle cx="110" cy="55" r="28" fill="none" stroke="#97f36d"/><path d="M110 22v66M77 55h66" stroke="#97f36d"/><text x="110" y="137" text-anchor="middle" class="value">REGENESIS</text><text x="110" y="157" text-anchor="middle" class="micro">AVAILABLE</text></g>
  <g transform="translate(215 570)"><path d="M0 55L55 0h110l55 55-55 55H55z" class="node" stroke="#535e59"/><path d="M78 28l64 54M142 28L78 82" stroke="#57645f" stroke-width="5"/><text x="110" y="137" text-anchor="middle" class="value" fill="#6d7773">VENOM</text><text x="110" y="157" text-anchor="middle" class="micro">LOCKED</text></g>
  <g transform="translate(385 570)"><path d="M0 55L55 0h110l55 55-55 55H55z" class="node"/><path d="M70 75c18-60 63-60 80 0" fill="none" stroke="#97f36d" stroke-width="4"/><text x="110" y="137" text-anchor="middle" class="value">SCENT GLANDS</text><text x="110" y="157" text-anchor="middle" class="micro">AVAILABLE</text></g>
  <g transform="translate(995 570)"><path d="M0 55L55 0h110l55 55-55 55H55z" class="node"/><path d="M75 76l35-48 35 48z" fill="none" stroke="#97f36d" stroke-width="4"/><text x="110" y="137" text-anchor="middle" class="value">APEX URGE</text><text x="110" y="157" text-anchor="middle" class="micro">AVAILABLE</text></g>
  <g transform="translate(1165 570)"><path d="M0 55L55 0h110l55 55-55 55H55z" class="node" stroke="#535e59"/><circle cx="110" cy="55" r="30" fill="none" stroke="#57645f"/><text x="110" y="137" text-anchor="middle" class="value" fill="#6d7773">UNKNOWN</text><text x="110" y="157" text-anchor="middle" class="micro">MILESTONE II</text></g>
  <g transform="translate(650 705)"><path d="M0 55L55 0h190l55 55-55 55H55z" fill="#14251c" stroke="#d8ff79" stroke-width="2" filter="url(#ng)"/><text x="150" y="51" text-anchor="middle" class="micro">ACTIVE MUTATION SLOT</text><text x="150" y="78" text-anchor="middle" class="value">EMPTY · SELECT NODE</text></g>
  <g transform="translate(125 855)"><rect width="210" height="42" fill="#102019" stroke="#7fe96b"/><text x="105" y="27" text-anchor="middle" class="label">STATUS</text><rect x="230" width="210" height="42" fill="#102019" stroke="#7fe96b"/><text x="335" y="27" text-anchor="middle" class="label">FORMS</text><rect x="460" width="210" height="42" fill="#1b3a25" stroke="#d6ff77"/><text x="565" y="27" text-anchor="middle" class="label">MUTATIONS</text></g>
</svg>
