<svg xmlns="http://www.w3.org/2000/svg" width="1600" height="1000" viewBox="0 0 1600 1000">
  <defs>
    <linearGradient id="rbg" x1="0" y1="0" x2="1" y2="1"><stop stop-color="#060607"/><stop offset=".5" stop-color="#170708"/><stop offset="1" stop-color="#050506"/></linearGradient>
    <linearGradient id="red"><stop stop-color="#ff9a83"/><stop offset=".45" stop-color="#ff3c34"/><stop offset="1" stop-color="#8b1017"/></linearGradient>
    <pattern id="grid" width="40" height="40" patternUnits="userSpaceOnUse"><path d="M40 0H0v40" fill="none" stroke="#ff514d" stroke-opacity=".045"/></pattern>
    <filter id="rg" x="-50%" y="-50%" width="200%" height="200%"><feGaussianBlur stdDeviation="6" result="b"/><feMerge><feMergeNode in="b"/><feMergeNode in="SourceGraphic"/></feMerge></filter>
    <style>.micro{font:11px Arial;letter-spacing:3px;fill:#a36d70}.label{font:700 12px Arial;letter-spacing:2px;fill:#bd8587}.value{font:700 19px Arial;fill:#fff2ef}.card{fill:#10090b;stroke:#ff514d;stroke-opacity:.3}.hot{filter:url(#rg)}</style>
  </defs>
  <rect width="1600" height="1000" fill="url(#rbg)"/><rect width="1600" height="1000" fill="url(#grid)"/>
  <path d="M75 75h1450v850H75z" fill="#090708" fill-opacity=".9" stroke="#f64c45" stroke-opacity=".42" stroke-width="2"/>
  <path d="M75 75h420M75 75v160M1525 75h-340M1525 75v160M75 925h410M1525 925h-410" fill="none" stroke="#ff493f" stroke-width="5" filter="url(#rg)"/>
  <path d="M75 178h1450M355 178v747" fill="none" stroke="#ff4e46" stroke-opacity=".22"/>
  <text x="115" y="123" font-family="Arial" font-size="31" font-weight="800" fill="#fff4f1" letter-spacing="4">RED QUEEN</text><text x="375" y="123" font-family="Arial" font-size="31" font-weight="300" fill="#ff5149" letter-spacing="4">REQUISITION MATRIX</text>
  <text x="115" y="153" class="micro">AUTHORIZED BIOLOGICAL ASSET // REWARD EXCHANGE</text>
  <g transform="translate(1180 100)"><text class="micro">EVOLUTION POINTS</text><text x="260" y="5" text-anchor="end" font-family="Arial" font-size="24" font-weight="800" fill="#ffdb85">1,002 EP</text></g>
  <g transform="translate(105 220)"><text class="micro">SHOP INDEX</text><g transform="translate(0 35)"><rect width="220" height="52" fill="#3a0c0e" stroke="#ff4d43"/><text x="22" y="32" class="value">BIOLOGICAL</text></g><g transform="translate(0 100)"><rect width="220" height="52" fill="#0d090a" stroke="#673136"/><text x="22" y="32" class="label">TRAITS</text></g><g transform="translate(0 165)"><rect width="220" height="52" fill="#0d090a" stroke="#673136"/><text x="22" y="32" class="label">MUTATIONS</text></g><g transform="translate(0 230)"><rect width="220" height="52" fill="#0d090a" stroke="#673136"/><text x="22" y="32" class="label">FORM UPGRADES</text></g><g transform="translate(0 295)"><rect width="220" height="52" fill="#0d090a" stroke="#673136"/><text x="22" y="32" class="label">CONSUMABLES</text></g></g>
  <g transform="translate(395 220)"><text class="micro">AVAILABLE REQUISITIONS</text>
    <g transform="translate(0 35)"><path class="card" d="M0 0h330l35 35v250H0z"/><rect x="22" y="22" width="92" height="92" fill="#2a0c0e" stroke="#ff4e43"/><path d="M68 38l31 18v36l-31 18-31-18V56z" fill="none" stroke="#ff6254" stroke-width="3"/><text x="135" y="49" class="micro">UNCOMMON</text><text x="135" y="79" class="value">Reinforced Carapace</text><text x="22" y="150" class="label">DAMAGE RESISTANCE</text><text x="290" y="150" class="value" text-anchor="end">+18%</text><text x="22" y="184" class="label">BIOLOGICAL LOAD</text><text x="290" y="184" class="value" text-anchor="end">MEDIUM</text><rect x="22" y="224" width="298" height="39" fill="#3b0d10" stroke="#ff4e43"/><text x="171" y="249" text-anchor="middle" font-family="Arial" font-size="13" font-weight="800" fill="#ffd4cd" letter-spacing="2">PURCHASE · 450 EP</text></g>
    <g transform="translate(390 35)"><path class="card" d="M0 0h330l35 35v250H0z"/><rect x="22" y="22" width="92" height="92" fill="#2a0c0e" stroke="#ffb34e"/><circle cx="68" cy="68" r="33" fill="none" stroke="#ffc35c" stroke-width="3"/><path d="M68 36v64M36 68h64" stroke="#ffc35c"/><text x="135" y="49" class="micro">RARE</text><text x="135" y="79" class="value">Regenerative Matrix</text><text x="22" y="150" class="label">REGENERATION RATE</text><text x="290" y="150" class="value" text-anchor="end">+32%</text><text x="22" y="184" class="label">BIOLOGICAL LOAD</text><text x="290" y="184" class="value" text-anchor="end">HIGH</text><rect x="22" y="224" width="298" height="39" fill="#3b0d10" stroke="#ff4e43"/><text x="171" y="249" text-anchor="middle" font-family="Arial" font-size="13" font-weight="800" fill="#ffd4cd" letter-spacing="2">PURCHASE · 900 EP</text></g>
    <g transform="translate(780 35)"><path class="card" d="M0 0h270l35 35v250H0z"/><rect x="22" y="22" width="92" height="92" fill="#2a0c0e" stroke="#8f9499"/><path d="M45 45l46 46M91 45L45 91" stroke="#d7dce0" stroke-width="4"/><text x="135" y="49" class="micro">LOCKED</text><text x="135" y="79" class="value">Unknown Genome</text><text x="22" y="150" class="label">REQUIREMENT</text><text x="250" y="150" class="value" text-anchor="end">MILESTONE II</text><rect x="22" y="224" width="258" height="39" fill="#161113" stroke="#554448"/><text x="151" y="249" text-anchor="middle" font-family="Arial" font-size="13" font-weight="800" fill="#7e7274" letter-spacing="2">UNAVAILABLE</text></g>
  </g>
  <g transform="translate(395 565)"><text class="micro">TRANSACTION LOG</text><path d="M0 32h1090" stroke="#ff4f47" stroke-opacity=".25"/><text y="70" class="label">SYSTEM NOTICE</text><text x="190" y="70" class="value">Purchases alter the canonical host state at the author's next checkpoint.</text><path d="M0 95h1090" stroke="#ff4f47" stroke-opacity=".12"/></g>
  <g transform="translate(395 850)"><rect width="200" height="44" fill="#240b0d" stroke="#ff4e45"/><text x="100" y="28" text-anchor="middle" class="label">STATUS</text><rect x="220" width="200" height="44" fill="#240b0d" stroke="#ff4e45"/><text x="320" y="28" text-anchor="middle" class="label">LOTTERY</text><rect x="440" width="200" height="44" fill="#240b0d" stroke="#ff4e45"/><text x="540" y="28" text-anchor="middle" class="label">WORLDS</text></g>
</svg>
